<?xml version="1.0" standalone="no"?>
<!DOCTYPE svg PUBLIC "-//W3C//DTD SVG 20010904//EN"
 "http://www.w3.org/TR/2001/REC-SVG-20010904/DTD/svg10.dtd">
<svg version="1.0" xmlns="http://www.w3.org/2000/svg"
 width="1280.000000pt" height="1227.000000pt" viewBox="0 0 1280.000000 1227.000000"
 preserveAspectRatio="xMidYMid meet">
<metadata>
Created by potrace 1.15, written by Peter Selinger 2001-2017
</metadata>
<g transform="translate(0.000000,1227.000000) scale(0.100000,-0.100000)"
fill="#000000" stroke="none">
<path d="M10458 12246 c-223 -79 -544 -329 -973 -760 -383 -384 -729 -783
-1044 -1204 -85 -113 -119 -151 -130 -147 -48 19 -325 99 -446 129 -826 205
-1716 226 -2560 60 -259 -51 -563 -134 -800 -220 -66 -23 -125 -44 -131 -46
-6 -2 -53 53 -104 122 -542 725 -1279 1493 -1724 1794 -162 110 -271 157 -364
157 -91 0 -122 -33 -159 -170 -217 -798 -268 -1638 -149 -2473 46 -319 110
-602 207 -910 l49 -157 -62 -83 c-561 -746 -867 -1653 -868 -2569 0 -356 25
-570 116 -999 l6 -26 -126 -17 c-257 -35 -576 -107 -861 -194 -180 -55 -187
-58 -183 -86 5 -34 35 -32 175 12 308 97 619 165 975 214 l37 6 16 -57 c50
-172 127 -387 195 -543 17 -39 30 -72 28 -73 -2 -2 -30 -8 -63 -15 -103 -21
-411 -110 -562 -162 -262 -91 -655 -259 -696 -298 -18 -18 -15 -46 7 -54 7 -3
75 24 151 60 339 157 651 269 998 358 97 25 181 45 186 45 5 0 40 -57 77 -127
37 -71 100 -184 141 -251 41 -68 73 -126 70 -128 -2 -2 -48 -17 -103 -33 -552
-165 -1057 -403 -1544 -727 -236 -157 -248 -167 -234 -191 6 -10 18 -19 26
-21 8 -1 64 32 124 74 522 367 1107 645 1719 820 l59 17 16 -24 c41 -63 227
-305 301 -392 46 -54 94 -111 106 -126 l23 -28 -123 -48 c-442 -175 -866 -414
-1167 -659 -228 -185 -442 -434 -545 -634 -26 -50 -27 -55 -11 -70 24 -25 41
-9 103 93 187 311 497 597 916 849 209 126 573 301 816 392 l64 24 141 -138
c78 -76 175 -167 216 -202 41 -35 76 -66 77 -69 2 -3 -39 -24 -90 -45 -162
-70 -447 -210 -611 -300 -635 -351 -1107 -741 -1439 -1189 -61 -82 -71 -119
-31 -125 16 -2 40 22 106 110 425 559 1072 1027 1974 1428 72 32 138 60 146
62 8 2 73 -40 144 -93 71 -52 157 -115 192 -139 50 -35 60 -46 50 -55 -7 -7
-80 -69 -163 -137 -548 -456 -995 -931 -1282 -1363 -160 -240 -188 -306 -136
-313 17 -3 32 16 88 110 310 519 845 1095 1525 1639 l45 36 60 -38 c33 -22
117 -72 187 -111 71 -40 128 -77 128 -82 0 -5 -6 -17 -14 -25 -25 -28 -222
-316 -317 -463 -213 -330 -440 -720 -604 -1040 -57 -112 -68 -140 -59 -155 25
-40 47 -21 102 87 174 341 399 733 605 1050 105 162 280 419 329 482 l28 36
143 -67 c78 -37 183 -85 234 -106 l92 -39 -14 -30 c-7 -17 -36 -85 -65 -151
-176 -408 -326 -864 -371 -1131 -13 -73 -9 -104 13 -104 29 0 38 21 63 136 49
234 132 502 245 794 60 153 184 447 193 456 1 2 59 -17 127 -42 152 -54 339
-111 520 -157 1062 -274 2280 -228 3303 125 67 23 122 37 127 32 14 -14 117
-255 190 -444 116 -300 191 -542 240 -768 33 -156 48 -183 83 -148 12 13 12
25 1 86 -57 302 -196 719 -388 1169 -32 73 -54 137 -49 141 4 4 46 22 93 40
47 18 148 62 224 97 77 35 143 63 147 63 8 0 236 -328 356 -515 201 -312 426
-702 572 -994 39 -77 75 -142 81 -146 18 -11 50 6 50 27 0 12 -39 96 -86 187
-238 457 -508 903 -793 1310 -89 128 -111 167 -100 173 8 5 84 47 169 94 85
48 167 95 182 106 l27 19 158 -132 c638 -535 1084 -1023 1378 -1512 79 -129
102 -150 124 -109 24 44 -267 473 -520 767 -223 260 -605 629 -946 914 -126
105 -132 111 -110 122 22 12 268 183 343 240 l42 31 143 -63 c407 -178 864
-438 1178 -672 313 -231 603 -516 800 -785 41 -56 59 -72 75 -70 39 6 30 42
-30 125 -248 337 -600 659 -1039 948 -291 192 -715 418 -1031 550 l-36 15 109
91 c59 50 161 142 225 205 l118 115 92 -37 c51 -20 172 -72 268 -116 661 -303
1145 -685 1382 -1092 65 -112 86 -128 108 -86 9 17 3 33 -31 93 -283 489 -861
923 -1670 1253 l-97 39 78 85 c95 104 237 280 320 394 34 47 65 86 70 86 23 0
263 -78 415 -135 459 -172 888 -398 1290 -679 60 -42 116 -75 123 -74 8 2 20
11 26 21 14 24 1 35 -234 191 -437 291 -857 497 -1346 662 -126 42 -231 78
-232 80 -2 1 25 49 60 106 72 114 164 277 200 351 23 48 23 49 62 43 62 -10
309 -81 474 -136 183 -61 421 -156 598 -239 72 -34 140 -61 151 -61 22 0 36
21 27 43 -9 23 -380 189 -612 273 -194 70 -573 184 -614 184 -9 0 -19 4 -22 8
-3 4 14 51 38 103 51 115 135 339 177 475 l31 100 31 -4 c230 -28 646 -123
910 -209 124 -39 152 -40 152 -3 0 22 -9 28 -85 53 -245 83 -549 158 -823 204
-157 26 -168 29 -162 48 21 76 79 385 96 510 26 192 37 647 20 850 -72 874
-394 1673 -963 2390 l-106 133 39 124 c112 352 196 766 244 1203 22 200 31
768 16 986 -29 408 -91 791 -189 1160 -32 123 -50 155 -97 175 -49 20 -100 17
-177 -10z"/>
</g>
</svg>
